<mxfile host="Electron" modified="2024-03-12T08:29:31.256Z" agent="Mozilla/5.0 (Windows NT 10.0; Win64; x64) AppleWebKit/537.36 (KHTML, like Gecko) draw.io/24.0.4 Chrome/120.0.6099.109 Electron/28.1.0 Safari/537.36" etag="YtuVqiVK7NJEkENsBoyp" version="24.0.4" type="device">
  <diagram name="Страница — 1" id="9mLne4hx7et4g71BdOXK">
    <mxGraphModel dx="1863" dy="1783" grid="1" gridSize="10" guides="1" tooltips="1" connect="1" arrows="1" fold="1" page="1" pageScale="1" pageWidth="827" pageHeight="1169" math="0" shadow="0">
      <root>
        <mxCell id="0" />
        <mxCell id="1" parent="0" />
        <mxCell id="YJoP9OfYh0lVy4JjJO5E-6" style="edgeStyle=orthogonalEdgeStyle;rounded=0;orthogonalLoop=1;jettySize=auto;html=1;entryX=0.5;entryY=1;entryDx=0;entryDy=0;" parent="1" source="YJoP9OfYh0lVy4JjJO5E-1" target="YJoP9OfYh0lVy4JjJO5E-4" edge="1">
          <mxGeometry relative="1" as="geometry" />
        </mxCell>
        <mxCell id="YJoP9OfYh0lVy4JjJO5E-1" value="ImageInfo" style="rounded=0;whiteSpace=wrap;html=1;" parent="1" vertex="1">
          <mxGeometry x="220" y="140" width="120" height="60" as="geometry" />
        </mxCell>
        <mxCell id="YJoP9OfYh0lVy4JjJO5E-7" style="edgeStyle=orthogonalEdgeStyle;rounded=0;orthogonalLoop=1;jettySize=auto;html=1;entryX=1;entryY=0.5;entryDx=0;entryDy=0;" parent="1" source="YJoP9OfYh0lVy4JjJO5E-3" target="YJoP9OfYh0lVy4JjJO5E-4" edge="1">
          <mxGeometry relative="1" as="geometry" />
        </mxCell>
        <mxCell id="YJoP9OfYh0lVy4JjJO5E-3" value="DownloadStatus" style="rounded=0;whiteSpace=wrap;html=1;" parent="1" vertex="1">
          <mxGeometry x="390" y="140" width="120" height="60" as="geometry" />
        </mxCell>
        <mxCell id="9Pxdr-Tm5J96W8Pt-L2r-4" style="edgeStyle=orthogonalEdgeStyle;rounded=0;orthogonalLoop=1;jettySize=auto;html=1;entryX=1;entryY=1;entryDx=0;entryDy=0;" parent="1" source="YJoP9OfYh0lVy4JjJO5E-4" target="YJoP9OfYh0lVy4JjJO5E-8" edge="1">
          <mxGeometry relative="1" as="geometry" />
        </mxCell>
        <mxCell id="YJoP9OfYh0lVy4JjJO5E-4" value="DownloadTask" style="rounded=0;whiteSpace=wrap;html=1;" parent="1" vertex="1">
          <mxGeometry x="305" y="10" width="120" height="60" as="geometry" />
        </mxCell>
        <mxCell id="YJoP9OfYh0lVy4JjJO5E-9" value="" style="edgeStyle=orthogonalEdgeStyle;rounded=0;orthogonalLoop=1;jettySize=auto;html=1;" parent="1" source="YJoP9OfYh0lVy4JjJO5E-5" target="YJoP9OfYh0lVy4JjJO5E-8" edge="1">
          <mxGeometry relative="1" as="geometry" />
        </mxCell>
        <mxCell id="YJoP9OfYh0lVy4JjJO5E-5" value="&lt;span style=&quot;background-color: rgb(255, 255, 255);&quot;&gt;DownloadStratagyFactory&lt;/span&gt;" style="rounded=0;whiteSpace=wrap;html=1;" parent="1" vertex="1">
          <mxGeometry x="-160" width="170" height="60" as="geometry" />
        </mxCell>
        <mxCell id="YJoP9OfYh0lVy4JjJO5E-11" style="edgeStyle=orthogonalEdgeStyle;rounded=0;orthogonalLoop=1;jettySize=auto;html=1;entryX=0.5;entryY=0;entryDx=0;entryDy=0;" parent="1" source="YJoP9OfYh0lVy4JjJO5E-8" target="YJoP9OfYh0lVy4JjJO5E-4" edge="1">
          <mxGeometry relative="1" as="geometry" />
        </mxCell>
        <mxCell id="9Pxdr-Tm5J96W8Pt-L2r-3" style="edgeStyle=orthogonalEdgeStyle;rounded=0;orthogonalLoop=1;jettySize=auto;html=1;entryX=0.5;entryY=1;entryDx=0;entryDy=0;" parent="1" source="YJoP9OfYh0lVy4JjJO5E-8" target="YJoP9OfYh0lVy4JjJO5E-21" edge="1">
          <mxGeometry relative="1" as="geometry" />
        </mxCell>
        <mxCell id="YJoP9OfYh0lVy4JjJO5E-8" value="&lt;span style=&quot;background-color: rgb(255, 255, 255);&quot;&gt;ImageDownloadService&lt;/span&gt;" style="rounded=0;whiteSpace=wrap;html=1;" parent="1" vertex="1">
          <mxGeometry x="50" y="-70" width="170" height="60" as="geometry" />
        </mxCell>
        <mxCell id="YJoP9OfYh0lVy4JjJO5E-14" value="" style="edgeStyle=orthogonalEdgeStyle;rounded=0;orthogonalLoop=1;jettySize=auto;html=1;" parent="1" source="YJoP9OfYh0lVy4JjJO5E-12" target="YJoP9OfYh0lVy4JjJO5E-5" edge="1">
          <mxGeometry relative="1" as="geometry" />
        </mxCell>
        <mxCell id="YJoP9OfYh0lVy4JjJO5E-12" value="HTTPDownloadStrategy" style="rounded=0;whiteSpace=wrap;html=1;" parent="1" vertex="1">
          <mxGeometry x="-160" y="140" width="170" height="60" as="geometry" />
        </mxCell>
        <mxCell id="YJoP9OfYh0lVy4JjJO5E-16" value="" style="edgeStyle=orthogonalEdgeStyle;rounded=0;orthogonalLoop=1;jettySize=auto;html=1;" parent="1" source="YJoP9OfYh0lVy4JjJO5E-15" target="YJoP9OfYh0lVy4JjJO5E-5" edge="1">
          <mxGeometry relative="1" as="geometry" />
        </mxCell>
        <mxCell id="YJoP9OfYh0lVy4JjJO5E-15" value="FTPDownloadStrategy" style="rounded=0;whiteSpace=wrap;html=1;" parent="1" vertex="1">
          <mxGeometry x="-160" y="-140" width="170" height="60" as="geometry" />
        </mxCell>
        <mxCell id="YJoP9OfYh0lVy4JjJO5E-19" value="" style="edgeStyle=orthogonalEdgeStyle;rounded=0;orthogonalLoop=1;jettySize=auto;html=1;entryX=0;entryY=0.5;entryDx=0;entryDy=0;" parent="1" source="YJoP9OfYh0lVy4JjJO5E-18" target="YJoP9OfYh0lVy4JjJO5E-12" edge="1">
          <mxGeometry relative="1" as="geometry">
            <Array as="points">
              <mxPoint x="-285" y="170" />
            </Array>
          </mxGeometry>
        </mxCell>
        <mxCell id="YJoP9OfYh0lVy4JjJO5E-20" style="edgeStyle=orthogonalEdgeStyle;rounded=0;orthogonalLoop=1;jettySize=auto;html=1;entryX=0;entryY=0.5;entryDx=0;entryDy=0;" parent="1" source="YJoP9OfYh0lVy4JjJO5E-18" target="YJoP9OfYh0lVy4JjJO5E-15" edge="1">
          <mxGeometry relative="1" as="geometry">
            <Array as="points">
              <mxPoint x="-280" y="-110" />
            </Array>
          </mxGeometry>
        </mxCell>
        <mxCell id="YJoP9OfYh0lVy4JjJO5E-18" value="DownloadStrategy" style="rounded=0;whiteSpace=wrap;html=1;" parent="1" vertex="1">
          <mxGeometry x="-370" width="170" height="60" as="geometry" />
        </mxCell>
        <mxCell id="9Pxdr-Tm5J96W8Pt-L2r-5" style="edgeStyle=orthogonalEdgeStyle;rounded=0;orthogonalLoop=1;jettySize=auto;html=1;entryX=1;entryY=0;entryDx=0;entryDy=0;" parent="1" source="YJoP9OfYh0lVy4JjJO5E-21" target="YJoP9OfYh0lVy4JjJO5E-8" edge="1">
          <mxGeometry relative="1" as="geometry" />
        </mxCell>
        <mxCell id="YJoP9OfYh0lVy4JjJO5E-21" value="&lt;span style=&quot;background-color: rgb(255, 255, 255);&quot;&gt;FileHandrerService&lt;/span&gt;" style="rounded=0;whiteSpace=wrap;html=1;" parent="1" vertex="1">
          <mxGeometry x="280" y="-220" width="170" height="60" as="geometry" />
        </mxCell>
        <mxCell id="hC-TW2_HCQhYa3seaEWy-6" value="" style="edgeStyle=orthogonalEdgeStyle;rounded=0;orthogonalLoop=1;jettySize=auto;html=1;" parent="1" source="hC-TW2_HCQhYa3seaEWy-2" target="hC-TW2_HCQhYa3seaEWy-5" edge="1">
          <mxGeometry relative="1" as="geometry" />
        </mxCell>
        <mxCell id="hC-TW2_HCQhYa3seaEWy-2" value="MAIN" style="whiteSpace=wrap;html=1;" parent="1" vertex="1">
          <mxGeometry x="75" y="-500" width="120" height="60" as="geometry" />
        </mxCell>
        <mxCell id="9Pxdr-Tm5J96W8Pt-L2r-1" style="edgeStyle=orthogonalEdgeStyle;rounded=0;orthogonalLoop=1;jettySize=auto;html=1;" parent="1" source="hC-TW2_HCQhYa3seaEWy-5" target="YJoP9OfYh0lVy4JjJO5E-8" edge="1">
          <mxGeometry relative="1" as="geometry" />
        </mxCell>
        <mxCell id="hC-TW2_HCQhYa3seaEWy-5" value="file_path_validator" style="whiteSpace=wrap;html=1;" parent="1" vertex="1">
          <mxGeometry x="75" y="-400" width="120" height="60" as="geometry" />
        </mxCell>
      </root>
    </mxGraphModel>
  </diagram>
</mxfile>
